<mxfile host="app.diagrams.net" modified="2024-04-06T17:36:13.152Z" agent="Mozilla/5.0 (Windows NT 10.0; Win64; x64) AppleWebKit/537.36 (KHTML, like Gecko) Chrome/123.0.0.0 Safari/537.36" etag="AKTjE6RIhbeITXq5VqVL" version="24.2.2" type="github" pages="6">
  <diagram name="Page-1" id="hImIH5Y_qeNKQe3tUeuU">
    <mxGraphModel dx="744" dy="434" grid="1" gridSize="10" guides="1" tooltips="1" connect="1" arrows="1" fold="1" page="1" pageScale="1" pageWidth="827" pageHeight="1169" math="1" shadow="0">
      <root>
        <mxCell id="0" />
        <mxCell id="1" parent="0" />
        <mxCell id="3SbkwkxHmMdXwbT6UPhh-1" value="" style="endArrow=none;html=1;rounded=0;strokeWidth=5;curved=1;movable=0;resizable=0;rotatable=0;deletable=0;editable=0;locked=1;connectable=0;" edge="1" parent="1">
          <mxGeometry width="50" height="50" relative="1" as="geometry">
            <mxPoint x="80" y="310" as="sourcePoint" />
            <mxPoint x="610" y="130" as="targetPoint" />
            <Array as="points">
              <mxPoint x="140" y="50" />
              <mxPoint x="460" y="420" />
              <mxPoint x="600" y="250" />
            </Array>
          </mxGeometry>
        </mxCell>
        <mxCell id="3SbkwkxHmMdXwbT6UPhh-2" value="" style="endArrow=none;html=1;rounded=0;strokeWidth=3;strokeColor=#FF0000;" edge="1" parent="1">
          <mxGeometry width="50" height="50" relative="1" as="geometry">
            <mxPoint x="80" y="310" as="sourcePoint" />
            <mxPoint x="120" y="210" as="targetPoint" />
          </mxGeometry>
        </mxCell>
        <mxCell id="3SbkwkxHmMdXwbT6UPhh-3" value="" style="endArrow=none;html=1;rounded=0;strokeWidth=3;strokeColor=#67AB9F;" edge="1" parent="1">
          <mxGeometry width="50" height="50" relative="1" as="geometry">
            <mxPoint x="120" y="210" as="sourcePoint" />
            <mxPoint x="210" y="160" as="targetPoint" />
          </mxGeometry>
        </mxCell>
        <mxCell id="3SbkwkxHmMdXwbT6UPhh-4" value="" style="endArrow=none;html=1;rounded=0;strokeWidth=3;strokeColor=#CC6600;" edge="1" parent="1">
          <mxGeometry width="50" height="50" relative="1" as="geometry">
            <mxPoint x="210" y="160" as="sourcePoint" />
            <mxPoint x="290" y="220" as="targetPoint" />
          </mxGeometry>
        </mxCell>
        <mxCell id="3SbkwkxHmMdXwbT6UPhh-5" value="" style="endArrow=none;html=1;rounded=0;strokeWidth=3;strokeColor=#25BA70;" edge="1" parent="1">
          <mxGeometry width="50" height="50" relative="1" as="geometry">
            <mxPoint x="290" y="220" as="sourcePoint" />
            <mxPoint x="380" y="310" as="targetPoint" />
          </mxGeometry>
        </mxCell>
        <mxCell id="3SbkwkxHmMdXwbT6UPhh-6" value="" style="endArrow=none;html=1;rounded=0;strokeWidth=3;strokeColor=#FF0000;" edge="1" parent="1">
          <mxGeometry width="50" height="50" relative="1" as="geometry">
            <mxPoint x="380" y="310" as="sourcePoint" />
            <mxPoint x="480" y="360" as="targetPoint" />
          </mxGeometry>
        </mxCell>
        <mxCell id="3SbkwkxHmMdXwbT6UPhh-7" value="" style="endArrow=none;html=1;rounded=0;strokeWidth=3;strokeColor=#25BA70;" edge="1" parent="1">
          <mxGeometry width="50" height="50" relative="1" as="geometry">
            <mxPoint x="480" y="360" as="sourcePoint" />
            <mxPoint x="550" y="300" as="targetPoint" />
          </mxGeometry>
        </mxCell>
        <mxCell id="3SbkwkxHmMdXwbT6UPhh-8" value="" style="endArrow=none;html=1;rounded=0;strokeWidth=3;strokeColor=#FF33FF;" edge="1" parent="1">
          <mxGeometry width="50" height="50" relative="1" as="geometry">
            <mxPoint x="550" y="300" as="sourcePoint" />
            <mxPoint x="590" y="220" as="targetPoint" />
          </mxGeometry>
        </mxCell>
        <mxCell id="3SbkwkxHmMdXwbT6UPhh-9" value="" style="endArrow=none;html=1;rounded=0;strokeWidth=3;strokeColor=#CC6600;" edge="1" parent="1">
          <mxGeometry width="50" height="50" relative="1" as="geometry">
            <mxPoint x="590" y="220" as="sourcePoint" />
            <mxPoint x="610" y="130" as="targetPoint" />
          </mxGeometry>
        </mxCell>
        <mxCell id="3SbkwkxHmMdXwbT6UPhh-10" value="`P = P_0`" style="text;html=1;align=center;verticalAlign=middle;whiteSpace=wrap;rounded=0;fontSize=20;" vertex="1" parent="1">
          <mxGeometry x="50" y="310" width="60" height="30" as="geometry" />
        </mxCell>
        <mxCell id="3SbkwkxHmMdXwbT6UPhh-12" value="`P_1`" style="text;html=1;align=center;verticalAlign=middle;whiteSpace=wrap;rounded=0;fontSize=20;" vertex="1" parent="1">
          <mxGeometry x="70" y="180" width="60" height="30" as="geometry" />
        </mxCell>
        <mxCell id="3SbkwkxHmMdXwbT6UPhh-13" value="`P_2`" style="text;html=1;align=center;verticalAlign=middle;whiteSpace=wrap;rounded=0;fontSize=20;" vertex="1" parent="1">
          <mxGeometry x="180" y="120" width="60" height="30" as="geometry" />
        </mxCell>
        <mxCell id="3SbkwkxHmMdXwbT6UPhh-14" value="`P_3`" style="text;html=1;align=center;verticalAlign=middle;whiteSpace=wrap;rounded=0;fontSize=20;" vertex="1" parent="1">
          <mxGeometry x="270" y="190" width="60" height="30" as="geometry" />
        </mxCell>
        <mxCell id="3SbkwkxHmMdXwbT6UPhh-15" value="`P_4`" style="text;html=1;align=center;verticalAlign=middle;whiteSpace=wrap;rounded=0;fontSize=20;" vertex="1" parent="1">
          <mxGeometry x="340" y="310" width="60" height="30" as="geometry" />
        </mxCell>
        <mxCell id="3SbkwkxHmMdXwbT6UPhh-16" value="`P_5`" style="text;html=1;align=center;verticalAlign=middle;whiteSpace=wrap;rounded=0;fontSize=20;" vertex="1" parent="1">
          <mxGeometry x="450" y="320" width="60" height="30" as="geometry" />
        </mxCell>
        <mxCell id="3SbkwkxHmMdXwbT6UPhh-17" value="`P_6`" style="text;html=1;align=center;verticalAlign=middle;whiteSpace=wrap;rounded=0;fontSize=20;" vertex="1" parent="1">
          <mxGeometry x="500" y="270" width="60" height="30" as="geometry" />
        </mxCell>
        <mxCell id="3SbkwkxHmMdXwbT6UPhh-18" value="`P_7`" style="text;html=1;align=center;verticalAlign=middle;whiteSpace=wrap;rounded=0;fontSize=20;" vertex="1" parent="1">
          <mxGeometry x="540" y="200" width="60" height="30" as="geometry" />
        </mxCell>
        <mxCell id="3SbkwkxHmMdXwbT6UPhh-19" value="`Q = P_8`" style="text;html=1;align=center;verticalAlign=middle;whiteSpace=wrap;rounded=0;fontSize=20;" vertex="1" parent="1">
          <mxGeometry x="538" y="120" width="60" height="30" as="geometry" />
        </mxCell>
      </root>
    </mxGraphModel>
  </diagram>
  <diagram id="BswYAwydhuH9jfz12rV5" name="Page-2">
    <mxGraphModel dx="744" dy="434" grid="1" gridSize="10" guides="1" tooltips="1" connect="1" arrows="1" fold="1" page="1" pageScale="1" pageWidth="827" pageHeight="1169" math="1" shadow="0">
      <root>
        <mxCell id="0" />
        <mxCell id="1" parent="0" />
        <mxCell id="l3XgBGyDnwy0xG47XRlE-1" value="" style="endArrow=none;html=1;rounded=0;strokeWidth=5;fontColor=#000000;strokeColor=#FF0000;" edge="1" parent="1">
          <mxGeometry width="50" height="50" relative="1" as="geometry">
            <mxPoint x="120" y="280" as="sourcePoint" />
            <mxPoint x="320" y="120" as="targetPoint" />
          </mxGeometry>
        </mxCell>
        <mxCell id="l3XgBGyDnwy0xG47XRlE-2" value="" style="endArrow=none;dashed=1;html=1;dashPattern=1 3;strokeWidth=2;rounded=0;strokeColor=#9933FF;" edge="1" parent="1">
          <mxGeometry width="50" height="50" relative="1" as="geometry">
            <mxPoint x="320" y="280" as="sourcePoint" />
            <mxPoint x="320" y="120" as="targetPoint" />
          </mxGeometry>
        </mxCell>
        <mxCell id="l3XgBGyDnwy0xG47XRlE-3" value="" style="endArrow=none;dashed=1;html=1;dashPattern=1 3;strokeWidth=2;rounded=0;strokeColor=#25BA70;" edge="1" parent="1">
          <mxGeometry width="50" height="50" relative="1" as="geometry">
            <mxPoint x="120" y="280" as="sourcePoint" />
            <mxPoint x="320" y="280" as="targetPoint" />
          </mxGeometry>
        </mxCell>
        <mxCell id="l3XgBGyDnwy0xG47XRlE-4" value="`(0, 0)`" style="text;html=1;align=center;verticalAlign=middle;whiteSpace=wrap;rounded=0;fontSize=20;" vertex="1" parent="1">
          <mxGeometry x="70" y="280" width="60" height="30" as="geometry" />
        </mxCell>
        <mxCell id="l3XgBGyDnwy0xG47XRlE-6" value="`(x, y)`" style="text;html=1;align=center;verticalAlign=middle;whiteSpace=wrap;rounded=0;fontSize=20;" vertex="1" parent="1">
          <mxGeometry x="290" y="81" width="60" height="30" as="geometry" />
        </mxCell>
      </root>
    </mxGraphModel>
  </diagram>
  <diagram name="Page-3" id="CgoNsIjasOp-Nqa2h68d">
    <mxGraphModel dx="744" dy="434" grid="1" gridSize="10" guides="1" tooltips="1" connect="1" arrows="1" fold="1" page="1" pageScale="1" pageWidth="827" pageHeight="1169" math="1" shadow="0">
      <root>
        <mxCell id="0jxKb5oXWUAI6Fmj0sjH-0" />
        <mxCell id="0jxKb5oXWUAI6Fmj0sjH-1" parent="0jxKb5oXWUAI6Fmj0sjH-0" />
        <mxCell id="0jxKb5oXWUAI6Fmj0sjH-2" value="" style="endArrow=none;html=1;rounded=0;strokeWidth=5;curved=1;movable=0;resizable=0;rotatable=0;deletable=0;editable=0;locked=1;connectable=0;" edge="1" parent="0jxKb5oXWUAI6Fmj0sjH-1">
          <mxGeometry width="50" height="50" relative="1" as="geometry">
            <mxPoint x="80" y="310" as="sourcePoint" />
            <mxPoint x="610" y="130" as="targetPoint" />
            <Array as="points">
              <mxPoint x="140" y="50" />
              <mxPoint x="460" y="420" />
              <mxPoint x="600" y="250" />
            </Array>
          </mxGeometry>
        </mxCell>
        <mxCell id="0jxKb5oXWUAI6Fmj0sjH-11" value="`p`" style="text;html=1;align=center;verticalAlign=middle;whiteSpace=wrap;rounded=0;fontSize=20;" vertex="1" parent="0jxKb5oXWUAI6Fmj0sjH-1">
          <mxGeometry x="148" y="162" width="60" height="30" as="geometry" />
        </mxCell>
        <mxCell id="RiQVMth3EaphrEWrfzxs-1" value="" style="endArrow=none;html=1;rounded=0;strokeWidth=3;strokeColor=#FF0000;" edge="1" parent="0jxKb5oXWUAI6Fmj0sjH-1">
          <mxGeometry width="50" height="50" relative="1" as="geometry">
            <mxPoint x="50" y="180" as="sourcePoint" />
            <mxPoint x="630" y="80" as="targetPoint" />
          </mxGeometry>
        </mxCell>
        <mxCell id="RiQVMth3EaphrEWrfzxs-2" value="" style="shape=waypoint;sketch=0;fillStyle=solid;size=6;pointerEvents=1;points=[];fillColor=none;resizable=0;rotatable=0;perimeter=centerPerimeter;snapToPoint=1;strokeWidth=5;strokeColor=#25BA70;" vertex="1" parent="0jxKb5oXWUAI6Fmj0sjH-1">
          <mxGeometry x="167" y="149" width="20" height="20" as="geometry" />
        </mxCell>
      </root>
    </mxGraphModel>
  </diagram>
  <diagram name="Page-4" id="d2U2aifnYkcEMpRTUvN_">
    <mxGraphModel dx="1063" dy="620" grid="1" gridSize="10" guides="1" tooltips="1" connect="1" arrows="1" fold="1" page="1" pageScale="1" pageWidth="827" pageHeight="1169" math="1" shadow="0">
      <root>
        <mxCell id="rwFp0a0jq_zS1nQin3AU-0" />
        <mxCell id="rwFp0a0jq_zS1nQin3AU-1" parent="rwFp0a0jq_zS1nQin3AU-0" />
        <mxCell id="rwFp0a0jq_zS1nQin3AU-2" value="" style="endArrow=none;html=1;rounded=0;strokeWidth=5;curved=1;movable=0;resizable=0;rotatable=0;deletable=0;editable=0;locked=1;connectable=0;" edge="1" parent="rwFp0a0jq_zS1nQin3AU-1">
          <mxGeometry width="50" height="50" relative="1" as="geometry">
            <mxPoint x="80" y="310" as="sourcePoint" />
            <mxPoint x="610" y="130" as="targetPoint" />
            <Array as="points">
              <mxPoint x="140" y="50" />
              <mxPoint x="460" y="420" />
              <mxPoint x="600" y="250" />
            </Array>
          </mxGeometry>
        </mxCell>
        <mxCell id="rwFp0a0jq_zS1nQin3AU-3" value="`p`" style="text;html=1;align=center;verticalAlign=middle;whiteSpace=wrap;rounded=0;fontSize=20;" vertex="1" parent="rwFp0a0jq_zS1nQin3AU-1">
          <mxGeometry x="148" y="162" width="60" height="30" as="geometry" />
        </mxCell>
        <mxCell id="rwFp0a0jq_zS1nQin3AU-4" value="" style="endArrow=none;html=1;rounded=0;strokeWidth=3;strokeColor=#FF0000;movable=0;resizable=0;rotatable=0;deletable=0;editable=0;locked=1;connectable=0;" edge="1" parent="rwFp0a0jq_zS1nQin3AU-1">
          <mxGeometry width="50" height="50" relative="1" as="geometry">
            <mxPoint x="50" y="180" as="sourcePoint" />
            <mxPoint x="630" y="80" as="targetPoint" />
          </mxGeometry>
        </mxCell>
        <mxCell id="rwFp0a0jq_zS1nQin3AU-5" value="" style="shape=waypoint;sketch=0;fillStyle=solid;size=6;pointerEvents=1;points=[];fillColor=none;resizable=0;rotatable=0;perimeter=centerPerimeter;snapToPoint=1;strokeWidth=5;strokeColor=#25BA70;movable=0;deletable=0;editable=0;locked=1;connectable=0;" vertex="1" parent="rwFp0a0jq_zS1nQin3AU-1">
          <mxGeometry x="167" y="149" width="20" height="20" as="geometry" />
        </mxCell>
        <mxCell id="e4ik4fv87tR9YMVxtzvv-0" value="" style="endArrow=classic;html=1;rounded=0;strokeWidth=5;strokeColor=#365953;" edge="1" parent="rwFp0a0jq_zS1nQin3AU-1">
          <mxGeometry width="50" height="50" relative="1" as="geometry">
            <mxPoint x="183" y="158" as="sourcePoint" />
            <mxPoint x="280" y="140" as="targetPoint" />
          </mxGeometry>
        </mxCell>
        <mxCell id="e4ik4fv87tR9YMVxtzvv-1" value="`\frac{\partial gamma}{\partial t}|_p`" style="text;html=1;align=center;verticalAlign=middle;whiteSpace=wrap;rounded=0;fontSize=20;" vertex="1" parent="rwFp0a0jq_zS1nQin3AU-1">
          <mxGeometry x="190" y="102" width="60" height="30" as="geometry" />
        </mxCell>
        <mxCell id="e4ik4fv87tR9YMVxtzvv-2" value="`M`" style="text;html=1;align=center;verticalAlign=middle;whiteSpace=wrap;rounded=0;fontSize=20;" vertex="1" parent="rwFp0a0jq_zS1nQin3AU-1">
          <mxGeometry x="384" y="290" width="60" height="30" as="geometry" />
        </mxCell>
        <mxCell id="e4ik4fv87tR9YMVxtzvv-4" value="`T_pM`" style="text;html=1;align=center;verticalAlign=middle;whiteSpace=wrap;rounded=0;fontSize=20;" vertex="1" parent="rwFp0a0jq_zS1nQin3AU-1">
          <mxGeometry x="360" y="80" width="60" height="30" as="geometry" />
        </mxCell>
      </root>
    </mxGraphModel>
  </diagram>
  <diagram name="Page-5" id="9OH0M-tiVB_HQHEBrS5z">
    <mxGraphModel dx="744" dy="434" grid="1" gridSize="10" guides="1" tooltips="1" connect="1" arrows="1" fold="1" page="1" pageScale="1" pageWidth="827" pageHeight="1169" math="1" shadow="0">
      <root>
        <mxCell id="A62p3WX1Pf3JsQpUh3Fa-0" />
        <mxCell id="A62p3WX1Pf3JsQpUh3Fa-1" parent="A62p3WX1Pf3JsQpUh3Fa-0" />
        <mxCell id="A62p3WX1Pf3JsQpUh3Fa-2" value="" style="endArrow=none;html=1;rounded=0;strokeWidth=5;curved=1;movable=0;resizable=0;rotatable=0;deletable=0;editable=0;locked=1;connectable=0;" edge="1" parent="A62p3WX1Pf3JsQpUh3Fa-1">
          <mxGeometry width="50" height="50" relative="1" as="geometry">
            <mxPoint x="80" y="310" as="sourcePoint" />
            <mxPoint x="610" y="130" as="targetPoint" />
            <Array as="points">
              <mxPoint x="140" y="50" />
              <mxPoint x="460" y="420" />
              <mxPoint x="600" y="250" />
            </Array>
          </mxGeometry>
        </mxCell>
        <mxCell id="A62p3WX1Pf3JsQpUh3Fa-3" value="" style="endArrow=none;html=1;rounded=0;strokeWidth=3;strokeColor=#FF0000;" edge="1" parent="A62p3WX1Pf3JsQpUh3Fa-1">
          <mxGeometry width="50" height="50" relative="1" as="geometry">
            <mxPoint x="92" y="246" as="sourcePoint" />
            <mxPoint x="152" y="146" as="targetPoint" />
          </mxGeometry>
        </mxCell>
        <mxCell id="A62p3WX1Pf3JsQpUh3Fa-4" value="" style="endArrow=none;html=1;rounded=0;strokeWidth=3;strokeColor=#67AB9F;" edge="1" parent="A62p3WX1Pf3JsQpUh3Fa-1">
          <mxGeometry width="50" height="50" relative="1" as="geometry">
            <mxPoint x="153" y="146" as="sourcePoint" />
            <mxPoint x="253" y="176" as="targetPoint" />
          </mxGeometry>
        </mxCell>
        <mxCell id="A62p3WX1Pf3JsQpUh3Fa-5" value="" style="endArrow=none;html=1;rounded=0;strokeWidth=3;strokeColor=#CC6600;" edge="1" parent="A62p3WX1Pf3JsQpUh3Fa-1">
          <mxGeometry width="50" height="50" relative="1" as="geometry">
            <mxPoint x="252" y="175" as="sourcePoint" />
            <mxPoint x="332" y="275" as="targetPoint" />
          </mxGeometry>
        </mxCell>
        <mxCell id="A62p3WX1Pf3JsQpUh3Fa-6" value="" style="endArrow=none;html=1;rounded=0;strokeWidth=3;strokeColor=#25BA70;" edge="1" parent="A62p3WX1Pf3JsQpUh3Fa-1">
          <mxGeometry width="50" height="50" relative="1" as="geometry">
            <mxPoint x="331" y="273" as="sourcePoint" />
            <mxPoint x="410" y="347" as="targetPoint" />
          </mxGeometry>
        </mxCell>
        <mxCell id="A62p3WX1Pf3JsQpUh3Fa-7" value="" style="endArrow=none;html=1;rounded=0;strokeWidth=3;strokeColor=#FF0000;" edge="1" parent="A62p3WX1Pf3JsQpUh3Fa-1">
          <mxGeometry width="50" height="50" relative="1" as="geometry">
            <mxPoint x="409" y="349" as="sourcePoint" />
            <mxPoint x="510" y="370" as="targetPoint" />
          </mxGeometry>
        </mxCell>
        <mxCell id="A62p3WX1Pf3JsQpUh3Fa-8" value="" style="endArrow=none;html=1;rounded=0;strokeWidth=3;strokeColor=#25BA70;" edge="1" parent="A62p3WX1Pf3JsQpUh3Fa-1">
          <mxGeometry width="50" height="50" relative="1" as="geometry">
            <mxPoint x="510" y="370" as="sourcePoint" />
            <mxPoint x="580" y="266" as="targetPoint" />
          </mxGeometry>
        </mxCell>
        <mxCell id="A62p3WX1Pf3JsQpUh3Fa-9" value="" style="endArrow=none;html=1;rounded=0;strokeWidth=3;strokeColor=#FF33FF;" edge="1" parent="A62p3WX1Pf3JsQpUh3Fa-1">
          <mxGeometry width="50" height="50" relative="1" as="geometry">
            <mxPoint x="579" y="269" as="sourcePoint" />
            <mxPoint x="609" y="159" as="targetPoint" />
          </mxGeometry>
        </mxCell>
        <mxCell id="A62p3WX1Pf3JsQpUh3Fa-11" value="`P = P_0`" style="text;html=1;align=center;verticalAlign=middle;whiteSpace=wrap;rounded=0;fontSize=20;" vertex="1" parent="A62p3WX1Pf3JsQpUh3Fa-1">
          <mxGeometry x="50" y="310" width="60" height="30" as="geometry" />
        </mxCell>
        <mxCell id="A62p3WX1Pf3JsQpUh3Fa-12" value="`P_1`" style="text;html=1;align=center;verticalAlign=middle;whiteSpace=wrap;rounded=0;fontSize=20;" vertex="1" parent="A62p3WX1Pf3JsQpUh3Fa-1">
          <mxGeometry x="70" y="180" width="60" height="30" as="geometry" />
        </mxCell>
        <mxCell id="A62p3WX1Pf3JsQpUh3Fa-13" value="`P_2`" style="text;html=1;align=center;verticalAlign=middle;whiteSpace=wrap;rounded=0;fontSize=20;" vertex="1" parent="A62p3WX1Pf3JsQpUh3Fa-1">
          <mxGeometry x="180" y="120" width="60" height="30" as="geometry" />
        </mxCell>
        <mxCell id="A62p3WX1Pf3JsQpUh3Fa-14" value="`P_3`" style="text;html=1;align=center;verticalAlign=middle;whiteSpace=wrap;rounded=0;fontSize=20;" vertex="1" parent="A62p3WX1Pf3JsQpUh3Fa-1">
          <mxGeometry x="270" y="190" width="60" height="30" as="geometry" />
        </mxCell>
        <mxCell id="A62p3WX1Pf3JsQpUh3Fa-15" value="`P_4`" style="text;html=1;align=center;verticalAlign=middle;whiteSpace=wrap;rounded=0;fontSize=20;" vertex="1" parent="A62p3WX1Pf3JsQpUh3Fa-1">
          <mxGeometry x="340" y="310" width="60" height="30" as="geometry" />
        </mxCell>
        <mxCell id="A62p3WX1Pf3JsQpUh3Fa-16" value="`P_5`" style="text;html=1;align=center;verticalAlign=middle;whiteSpace=wrap;rounded=0;fontSize=20;" vertex="1" parent="A62p3WX1Pf3JsQpUh3Fa-1">
          <mxGeometry x="450" y="320" width="60" height="30" as="geometry" />
        </mxCell>
        <mxCell id="A62p3WX1Pf3JsQpUh3Fa-17" value="`P_6`" style="text;html=1;align=center;verticalAlign=middle;whiteSpace=wrap;rounded=0;fontSize=20;" vertex="1" parent="A62p3WX1Pf3JsQpUh3Fa-1">
          <mxGeometry x="500" y="270" width="60" height="30" as="geometry" />
        </mxCell>
        <mxCell id="A62p3WX1Pf3JsQpUh3Fa-18" value="`P_7`" style="text;html=1;align=center;verticalAlign=middle;whiteSpace=wrap;rounded=0;fontSize=20;" vertex="1" parent="A62p3WX1Pf3JsQpUh3Fa-1">
          <mxGeometry x="540" y="200" width="60" height="30" as="geometry" />
        </mxCell>
        <mxCell id="A62p3WX1Pf3JsQpUh3Fa-19" value="`Q = P_8`" style="text;html=1;align=center;verticalAlign=middle;whiteSpace=wrap;rounded=0;fontSize=20;" vertex="1" parent="A62p3WX1Pf3JsQpUh3Fa-1">
          <mxGeometry x="538" y="120" width="60" height="30" as="geometry" />
        </mxCell>
      </root>
    </mxGraphModel>
  </diagram>
  <diagram name="Page-6" id="aveUGTTD0DUVYUmiwHtJ">
    <mxGraphModel dx="744" dy="434" grid="1" gridSize="10" guides="1" tooltips="1" connect="1" arrows="1" fold="1" page="1" pageScale="1" pageWidth="827" pageHeight="1169" math="1" shadow="0">
      <root>
        <mxCell id="oIWJIH0xfNJB2ZhrCXF4-0" />
        <mxCell id="oIWJIH0xfNJB2ZhrCXF4-1" parent="oIWJIH0xfNJB2ZhrCXF4-0" />
        <mxCell id="zFaf93Fm3P3mI3rpG0H8-0" value="" style="endArrow=none;html=1;rounded=0;strokeWidth=5;curved=1;" edge="1" parent="oIWJIH0xfNJB2ZhrCXF4-1">
          <mxGeometry width="50" height="50" relative="1" as="geometry">
            <mxPoint x="50" y="199" as="sourcePoint" />
            <mxPoint x="630" y="109" as="targetPoint" />
            <Array as="points">
              <mxPoint x="160" y="139" />
            </Array>
          </mxGeometry>
        </mxCell>
        <mxCell id="oIWJIH0xfNJB2ZhrCXF4-3" value="`p`" style="text;html=1;align=center;verticalAlign=middle;whiteSpace=wrap;rounded=0;fontSize=20;" vertex="1" parent="oIWJIH0xfNJB2ZhrCXF4-1">
          <mxGeometry x="148" y="162" width="60" height="30" as="geometry" />
        </mxCell>
        <mxCell id="oIWJIH0xfNJB2ZhrCXF4-4" value="" style="endArrow=none;html=1;rounded=0;strokeWidth=3;strokeColor=#FF0000;movable=0;resizable=0;rotatable=0;deletable=0;editable=0;locked=1;connectable=0;" edge="1" parent="oIWJIH0xfNJB2ZhrCXF4-1">
          <mxGeometry width="50" height="50" relative="1" as="geometry">
            <mxPoint x="50" y="180" as="sourcePoint" />
            <mxPoint x="630" y="80" as="targetPoint" />
          </mxGeometry>
        </mxCell>
        <mxCell id="oIWJIH0xfNJB2ZhrCXF4-5" value="" style="shape=waypoint;sketch=0;fillStyle=solid;size=6;pointerEvents=1;points=[];fillColor=none;resizable=0;rotatable=0;perimeter=centerPerimeter;snapToPoint=1;strokeWidth=5;strokeColor=#25BA70;movable=0;deletable=0;editable=0;locked=1;connectable=0;" vertex="1" parent="oIWJIH0xfNJB2ZhrCXF4-1">
          <mxGeometry x="167" y="149" width="20" height="20" as="geometry" />
        </mxCell>
        <mxCell id="oIWJIH0xfNJB2ZhrCXF4-6" value="" style="endArrow=classic;html=1;rounded=0;strokeWidth=5;strokeColor=#65A69B;" edge="1" parent="oIWJIH0xfNJB2ZhrCXF4-1">
          <mxGeometry width="50" height="50" relative="1" as="geometry">
            <mxPoint x="183" y="158" as="sourcePoint" />
            <mxPoint x="280" y="140" as="targetPoint" />
          </mxGeometry>
        </mxCell>
        <mxCell id="oIWJIH0xfNJB2ZhrCXF4-7" value="`\frac{\partial gamma}{\partial t}|_p`" style="text;html=1;align=center;verticalAlign=middle;whiteSpace=wrap;rounded=0;fontSize=20;" vertex="1" parent="oIWJIH0xfNJB2ZhrCXF4-1">
          <mxGeometry x="190" y="102" width="60" height="30" as="geometry" />
        </mxCell>
        <mxCell id="oIWJIH0xfNJB2ZhrCXF4-8" value="`M = \mathbb{R}`" style="text;html=1;align=center;verticalAlign=middle;whiteSpace=wrap;rounded=0;fontSize=20;" vertex="1" parent="oIWJIH0xfNJB2ZhrCXF4-1">
          <mxGeometry x="571" y="118" width="60" height="30" as="geometry" />
        </mxCell>
        <mxCell id="oIWJIH0xfNJB2ZhrCXF4-9" value="`T_pM`" style="text;html=1;align=center;verticalAlign=middle;whiteSpace=wrap;rounded=0;fontSize=20;" vertex="1" parent="oIWJIH0xfNJB2ZhrCXF4-1">
          <mxGeometry x="360" y="80" width="60" height="30" as="geometry" />
        </mxCell>
      </root>
    </mxGraphModel>
  </diagram>
</mxfile>
